<mxfile host="app.diagrams.net" modified="2024-06-24T01:41:37.527Z" agent="Mozilla/5.0 (Windows NT 10.0; Win64; x64) AppleWebKit/537.36 (KHTML, like Gecko) Chrome/126.0.0.0 Safari/537.36" etag="afSXWSZAECfM0b0jbIhr" version="24.6.2" type="github">
  <diagram id="C5RBs43oDa-KdzZeNtuy" name="Page-1">
    <mxGraphModel dx="834" dy="1578" grid="1" gridSize="10" guides="1" tooltips="1" connect="1" arrows="1" fold="1" page="1" pageScale="1" pageWidth="827" pageHeight="1169" math="0" shadow="0">
      <root>
        <mxCell id="WIyWlLk6GJQsqaUBKTNV-0" />
        <mxCell id="WIyWlLk6GJQsqaUBKTNV-1" parent="WIyWlLk6GJQsqaUBKTNV-0" />
        <mxCell id="shTJUZSFNvjALPhXJrNq-2" value="" style="edgeStyle=orthogonalEdgeStyle;rounded=0;orthogonalLoop=1;jettySize=auto;html=1;" edge="1" parent="WIyWlLk6GJQsqaUBKTNV-1" source="shTJUZSFNvjALPhXJrNq-0" target="shTJUZSFNvjALPhXJrNq-1">
          <mxGeometry relative="1" as="geometry">
            <Array as="points">
              <mxPoint x="240" y="110" />
              <mxPoint x="240" y="110" />
            </Array>
          </mxGeometry>
        </mxCell>
        <mxCell id="shTJUZSFNvjALPhXJrNq-0" value="INÍCIO" style="rounded=1;whiteSpace=wrap;html=1;arcSize=50;" vertex="1" parent="WIyWlLk6GJQsqaUBKTNV-1">
          <mxGeometry x="180" y="50" width="120" height="30" as="geometry" />
        </mxCell>
        <mxCell id="shTJUZSFNvjALPhXJrNq-48" value="" style="edgeStyle=orthogonalEdgeStyle;rounded=0;orthogonalLoop=1;jettySize=auto;html=1;" edge="1" parent="WIyWlLk6GJQsqaUBKTNV-1" source="shTJUZSFNvjALPhXJrNq-1" target="shTJUZSFNvjALPhXJrNq-3">
          <mxGeometry relative="1" as="geometry" />
        </mxCell>
        <mxCell id="shTJUZSFNvjALPhXJrNq-1" value="SALDO" style="shape=manualInput;whiteSpace=wrap;html=1;" vertex="1" parent="WIyWlLk6GJQsqaUBKTNV-1">
          <mxGeometry x="195" y="110" width="105" height="60" as="geometry" />
        </mxCell>
        <mxCell id="shTJUZSFNvjALPhXJrNq-50" value="" style="edgeStyle=orthogonalEdgeStyle;rounded=0;orthogonalLoop=1;jettySize=auto;html=1;entryX=1;entryY=0.5;entryDx=0;entryDy=0;exitX=0;exitY=0;exitDx=67.5;exitDy=55;exitPerimeter=0;" edge="1" parent="WIyWlLk6GJQsqaUBKTNV-1" source="shTJUZSFNvjALPhXJrNq-3" target="shTJUZSFNvjALPhXJrNq-5">
          <mxGeometry relative="1" as="geometry">
            <mxPoint x="450.0000000000002" y="210" as="targetPoint" />
          </mxGeometry>
        </mxCell>
        <mxCell id="shTJUZSFNvjALPhXJrNq-3" value="&quot;SALDO INICIAL&quot; + SALDO" style="shape=display;whiteSpace=wrap;html=1;" vertex="1" parent="WIyWlLk6GJQsqaUBKTNV-1">
          <mxGeometry x="390" y="115" width="130" height="55" as="geometry" />
        </mxCell>
        <mxCell id="shTJUZSFNvjALPhXJrNq-9" value="" style="edgeStyle=orthogonalEdgeStyle;rounded=0;orthogonalLoop=1;jettySize=auto;html=1;" edge="1" parent="WIyWlLk6GJQsqaUBKTNV-1" source="shTJUZSFNvjALPhXJrNq-5" target="shTJUZSFNvjALPhXJrNq-8">
          <mxGeometry relative="1" as="geometry">
            <Array as="points">
              <mxPoint x="245" y="340" />
              <mxPoint x="245" y="340" />
            </Array>
          </mxGeometry>
        </mxCell>
        <mxCell id="shTJUZSFNvjALPhXJrNq-5" value="ENCERRAR = &#39;N&#39;" style="rounded=1;whiteSpace=wrap;html=1;" vertex="1" parent="WIyWlLk6GJQsqaUBKTNV-1">
          <mxGeometry x="187.5" y="200" width="120" height="50" as="geometry" />
        </mxCell>
        <mxCell id="shTJUZSFNvjALPhXJrNq-12" value="" style="edgeStyle=orthogonalEdgeStyle;rounded=0;orthogonalLoop=1;jettySize=auto;html=1;" edge="1" parent="WIyWlLk6GJQsqaUBKTNV-1" source="shTJUZSFNvjALPhXJrNq-8" target="shTJUZSFNvjALPhXJrNq-10">
          <mxGeometry relative="1" as="geometry" />
        </mxCell>
        <mxCell id="shTJUZSFNvjALPhXJrNq-64" value="" style="edgeStyle=orthogonalEdgeStyle;rounded=0;orthogonalLoop=1;jettySize=auto;html=1;entryX=1;entryY=0.5;entryDx=0;entryDy=0;entryPerimeter=0;" edge="1" parent="WIyWlLk6GJQsqaUBKTNV-1" source="shTJUZSFNvjALPhXJrNq-8" target="shTJUZSFNvjALPhXJrNq-60">
          <mxGeometry relative="1" as="geometry">
            <mxPoint x="417.5" y="325" as="targetPoint" />
            <Array as="points">
              <mxPoint x="680" y="325" />
              <mxPoint x="680" y="1020" />
            </Array>
          </mxGeometry>
        </mxCell>
        <mxCell id="shTJUZSFNvjALPhXJrNq-8" value="&amp;nbsp;ENCERRAR = &#39;N&#39;" style="rhombus;whiteSpace=wrap;html=1;" vertex="1" parent="WIyWlLk6GJQsqaUBKTNV-1">
          <mxGeometry x="182.5" y="280" width="130" height="90" as="geometry" />
        </mxCell>
        <mxCell id="shTJUZSFNvjALPhXJrNq-13" value="" style="edgeStyle=orthogonalEdgeStyle;rounded=0;orthogonalLoop=1;jettySize=auto;html=1;" edge="1" parent="WIyWlLk6GJQsqaUBKTNV-1" source="shTJUZSFNvjALPhXJrNq-10" target="shTJUZSFNvjALPhXJrNq-11">
          <mxGeometry relative="1" as="geometry" />
        </mxCell>
        <mxCell id="shTJUZSFNvjALPhXJrNq-10" value="TIPO DE ENTRADA" style="shape=manualInput;whiteSpace=wrap;html=1;" vertex="1" parent="WIyWlLk6GJQsqaUBKTNV-1">
          <mxGeometry x="200" y="380" width="95" height="80" as="geometry" />
        </mxCell>
        <mxCell id="shTJUZSFNvjALPhXJrNq-16" value="" style="edgeStyle=orthogonalEdgeStyle;rounded=0;orthogonalLoop=1;jettySize=auto;html=1;" edge="1" parent="WIyWlLk6GJQsqaUBKTNV-1" source="shTJUZSFNvjALPhXJrNq-11" target="shTJUZSFNvjALPhXJrNq-14">
          <mxGeometry relative="1" as="geometry" />
        </mxCell>
        <mxCell id="shTJUZSFNvjALPhXJrNq-11" value="QUANTIDADE" style="shape=manualInput;whiteSpace=wrap;html=1;" vertex="1" parent="WIyWlLk6GJQsqaUBKTNV-1">
          <mxGeometry x="200" y="490" width="95" height="80" as="geometry" />
        </mxCell>
        <mxCell id="shTJUZSFNvjALPhXJrNq-18" value="" style="edgeStyle=orthogonalEdgeStyle;rounded=0;orthogonalLoop=1;jettySize=auto;html=1;" edge="1" parent="WIyWlLk6GJQsqaUBKTNV-1" source="shTJUZSFNvjALPhXJrNq-14" target="shTJUZSFNvjALPhXJrNq-17">
          <mxGeometry relative="1" as="geometry" />
        </mxCell>
        <mxCell id="shTJUZSFNvjALPhXJrNq-21" value="" style="edgeStyle=orthogonalEdgeStyle;rounded=0;orthogonalLoop=1;jettySize=auto;html=1;" edge="1" parent="WIyWlLk6GJQsqaUBKTNV-1" source="shTJUZSFNvjALPhXJrNq-14" target="shTJUZSFNvjALPhXJrNq-15">
          <mxGeometry relative="1" as="geometry" />
        </mxCell>
        <mxCell id="shTJUZSFNvjALPhXJrNq-14" value="TIPO ENTRADA 1" style="rhombus;whiteSpace=wrap;html=1;" vertex="1" parent="WIyWlLk6GJQsqaUBKTNV-1">
          <mxGeometry x="187.5" y="610" width="120" height="90" as="geometry" />
        </mxCell>
        <mxCell id="shTJUZSFNvjALPhXJrNq-28" value="" style="edgeStyle=orthogonalEdgeStyle;rounded=0;orthogonalLoop=1;jettySize=auto;html=1;" edge="1" parent="WIyWlLk6GJQsqaUBKTNV-1" source="shTJUZSFNvjALPhXJrNq-15" target="shTJUZSFNvjALPhXJrNq-27">
          <mxGeometry relative="1" as="geometry" />
        </mxCell>
        <mxCell id="shTJUZSFNvjALPhXJrNq-38" value="" style="edgeStyle=orthogonalEdgeStyle;rounded=0;orthogonalLoop=1;jettySize=auto;html=1;" edge="1" parent="WIyWlLk6GJQsqaUBKTNV-1" source="shTJUZSFNvjALPhXJrNq-15" target="shTJUZSFNvjALPhXJrNq-37">
          <mxGeometry relative="1" as="geometry" />
        </mxCell>
        <mxCell id="shTJUZSFNvjALPhXJrNq-15" value="TIPO ENTRADA 2" style="rhombus;whiteSpace=wrap;html=1;" vertex="1" parent="WIyWlLk6GJQsqaUBKTNV-1">
          <mxGeometry x="182.5" y="730" width="130" height="90" as="geometry" />
        </mxCell>
        <mxCell id="shTJUZSFNvjALPhXJrNq-20" value="" style="edgeStyle=orthogonalEdgeStyle;rounded=0;orthogonalLoop=1;jettySize=auto;html=1;" edge="1" parent="WIyWlLk6GJQsqaUBKTNV-1" source="shTJUZSFNvjALPhXJrNq-17" target="shTJUZSFNvjALPhXJrNq-19">
          <mxGeometry relative="1" as="geometry" />
        </mxCell>
        <mxCell id="shTJUZSFNvjALPhXJrNq-17" value="SALDO = SALDO + QUANTIDADE" style="rounded=1;whiteSpace=wrap;html=1;" vertex="1" parent="WIyWlLk6GJQsqaUBKTNV-1">
          <mxGeometry x="365" y="625" width="120" height="60" as="geometry" />
        </mxCell>
        <mxCell id="shTJUZSFNvjALPhXJrNq-26" value="" style="edgeStyle=orthogonalEdgeStyle;rounded=0;orthogonalLoop=1;jettySize=auto;html=1;exitX=0.5;exitY=1;exitDx=0;exitDy=0;exitPerimeter=0;" edge="1" parent="WIyWlLk6GJQsqaUBKTNV-1" source="shTJUZSFNvjALPhXJrNq-19">
          <mxGeometry relative="1" as="geometry">
            <mxPoint x="612" y="790" as="sourcePoint" />
            <mxPoint x="280" y="720" as="targetPoint" />
            <Array as="points">
              <mxPoint x="580" y="720" />
              <mxPoint x="280" y="720" />
            </Array>
          </mxGeometry>
        </mxCell>
        <mxCell id="shTJUZSFNvjALPhXJrNq-19" value="ENTRADA + QUANTIDADE" style="strokeWidth=2;html=1;shape=mxgraph.flowchart.display;whiteSpace=wrap;" vertex="1" parent="WIyWlLk6GJQsqaUBKTNV-1">
          <mxGeometry x="530" y="625" width="100" height="60" as="geometry" />
        </mxCell>
        <mxCell id="shTJUZSFNvjALPhXJrNq-22" value="F" style="text;html=1;align=center;verticalAlign=middle;resizable=0;points=[];autosize=1;strokeColor=none;fillColor=none;" vertex="1" parent="WIyWlLk6GJQsqaUBKTNV-1">
          <mxGeometry x="210" y="850" width="30" height="30" as="geometry" />
        </mxCell>
        <mxCell id="shTJUZSFNvjALPhXJrNq-30" value="" style="edgeStyle=orthogonalEdgeStyle;rounded=0;orthogonalLoop=1;jettySize=auto;html=1;" edge="1" parent="WIyWlLk6GJQsqaUBKTNV-1" source="shTJUZSFNvjALPhXJrNq-27" target="shTJUZSFNvjALPhXJrNq-29">
          <mxGeometry relative="1" as="geometry" />
        </mxCell>
        <mxCell id="shTJUZSFNvjALPhXJrNq-36" value="" style="edgeStyle=orthogonalEdgeStyle;rounded=0;orthogonalLoop=1;jettySize=auto;html=1;" edge="1" parent="WIyWlLk6GJQsqaUBKTNV-1" source="shTJUZSFNvjALPhXJrNq-27" target="shTJUZSFNvjALPhXJrNq-35">
          <mxGeometry relative="1" as="geometry" />
        </mxCell>
        <mxCell id="shTJUZSFNvjALPhXJrNq-27" value="TIPO ENTRADA 2" style="rhombus;whiteSpace=wrap;html=1;" vertex="1" parent="WIyWlLk6GJQsqaUBKTNV-1">
          <mxGeometry x="355" y="730" width="130" height="90" as="geometry" />
        </mxCell>
        <mxCell id="shTJUZSFNvjALPhXJrNq-32" value="" style="edgeStyle=orthogonalEdgeStyle;rounded=0;orthogonalLoop=1;jettySize=auto;html=1;" edge="1" parent="WIyWlLk6GJQsqaUBKTNV-1" source="shTJUZSFNvjALPhXJrNq-29" target="shTJUZSFNvjALPhXJrNq-31">
          <mxGeometry relative="1" as="geometry" />
        </mxCell>
        <mxCell id="shTJUZSFNvjALPhXJrNq-29" value="SALDO = SALDO - QUANTIDADE" style="rounded=1;whiteSpace=wrap;html=1;" vertex="1" parent="WIyWlLk6GJQsqaUBKTNV-1">
          <mxGeometry x="520" y="745" width="120" height="60" as="geometry" />
        </mxCell>
        <mxCell id="shTJUZSFNvjALPhXJrNq-43" value="" style="edgeStyle=orthogonalEdgeStyle;rounded=0;orthogonalLoop=1;jettySize=auto;html=1;exitX=0.5;exitY=1;exitDx=0;exitDy=0;exitPerimeter=0;" edge="1" parent="WIyWlLk6GJQsqaUBKTNV-1" source="shTJUZSFNvjALPhXJrNq-31">
          <mxGeometry relative="1" as="geometry">
            <mxPoint x="560" y="1030" as="sourcePoint" />
            <mxPoint x="270" y="920" as="targetPoint" />
            <Array as="points">
              <mxPoint x="610" y="900" />
              <mxPoint x="610" y="920" />
              <mxPoint x="270" y="920" />
            </Array>
          </mxGeometry>
        </mxCell>
        <mxCell id="shTJUZSFNvjALPhXJrNq-31" value="SAIDA + QUANTIDADE" style="strokeWidth=2;html=1;shape=mxgraph.flowchart.display;whiteSpace=wrap;" vertex="1" parent="WIyWlLk6GJQsqaUBKTNV-1">
          <mxGeometry x="530" y="840" width="100" height="60" as="geometry" />
        </mxCell>
        <mxCell id="shTJUZSFNvjALPhXJrNq-33" value="V" style="text;html=1;align=center;verticalAlign=middle;resizable=0;points=[];autosize=1;strokeColor=none;fillColor=none;" vertex="1" parent="WIyWlLk6GJQsqaUBKTNV-1">
          <mxGeometry x="312.5" y="745" width="30" height="30" as="geometry" />
        </mxCell>
        <mxCell id="shTJUZSFNvjALPhXJrNq-34" value="V" style="text;html=1;align=center;verticalAlign=middle;resizable=0;points=[];autosize=1;strokeColor=none;fillColor=none;" vertex="1" parent="WIyWlLk6GJQsqaUBKTNV-1">
          <mxGeometry x="480" y="740" width="30" height="30" as="geometry" />
        </mxCell>
        <mxCell id="shTJUZSFNvjALPhXJrNq-47" value="" style="edgeStyle=orthogonalEdgeStyle;rounded=0;orthogonalLoop=1;jettySize=auto;html=1;" edge="1" parent="WIyWlLk6GJQsqaUBKTNV-1" source="shTJUZSFNvjALPhXJrNq-35">
          <mxGeometry relative="1" as="geometry">
            <mxPoint x="260" y="873" as="targetPoint" />
          </mxGeometry>
        </mxCell>
        <mxCell id="shTJUZSFNvjALPhXJrNq-35" value="SALDO INSUFICIENTE" style="strokeWidth=2;html=1;shape=mxgraph.flowchart.display;whiteSpace=wrap;" vertex="1" parent="WIyWlLk6GJQsqaUBKTNV-1">
          <mxGeometry x="370" y="843" width="100" height="60" as="geometry" />
        </mxCell>
        <mxCell id="shTJUZSFNvjALPhXJrNq-57" value="" style="edgeStyle=orthogonalEdgeStyle;rounded=0;orthogonalLoop=1;jettySize=auto;html=1;" edge="1" parent="WIyWlLk6GJQsqaUBKTNV-1" source="shTJUZSFNvjALPhXJrNq-37" target="shTJUZSFNvjALPhXJrNq-56">
          <mxGeometry relative="1" as="geometry" />
        </mxCell>
        <mxCell id="shTJUZSFNvjALPhXJrNq-37" value="SALDO" style="strokeWidth=2;html=1;shape=mxgraph.flowchart.display;whiteSpace=wrap;" vertex="1" parent="WIyWlLk6GJQsqaUBKTNV-1">
          <mxGeometry x="205" y="930" width="102.5" height="60" as="geometry" />
        </mxCell>
        <mxCell id="shTJUZSFNvjALPhXJrNq-53" value="V" style="text;html=1;align=center;verticalAlign=middle;resizable=0;points=[];autosize=1;strokeColor=none;fillColor=none;" vertex="1" parent="WIyWlLk6GJQsqaUBKTNV-1">
          <mxGeometry x="315" y="618" width="30" height="30" as="geometry" />
        </mxCell>
        <mxCell id="shTJUZSFNvjALPhXJrNq-54" value="F" style="text;html=1;align=center;verticalAlign=middle;resizable=0;points=[];autosize=1;strokeColor=none;fillColor=none;" vertex="1" parent="WIyWlLk6GJQsqaUBKTNV-1">
          <mxGeometry x="215" y="698" width="30" height="30" as="geometry" />
        </mxCell>
        <mxCell id="shTJUZSFNvjALPhXJrNq-55" value="F" style="text;html=1;align=center;verticalAlign=middle;resizable=0;points=[];autosize=1;strokeColor=none;fillColor=none;" vertex="1" parent="WIyWlLk6GJQsqaUBKTNV-1">
          <mxGeometry x="385" y="808" width="30" height="30" as="geometry" />
        </mxCell>
        <mxCell id="shTJUZSFNvjALPhXJrNq-59" value="" style="edgeStyle=orthogonalEdgeStyle;rounded=0;orthogonalLoop=1;jettySize=auto;html=1;entryX=0;entryY=0.5;entryDx=0;entryDy=0;" edge="1" parent="WIyWlLk6GJQsqaUBKTNV-1" source="shTJUZSFNvjALPhXJrNq-56" target="shTJUZSFNvjALPhXJrNq-8">
          <mxGeometry relative="1" as="geometry">
            <mxPoint x="180" y="320" as="targetPoint" />
            <Array as="points">
              <mxPoint x="100" y="1055" />
              <mxPoint x="100" y="323" />
              <mxPoint x="150" y="323" />
              <mxPoint x="150" y="325" />
            </Array>
          </mxGeometry>
        </mxCell>
        <mxCell id="shTJUZSFNvjALPhXJrNq-56" value="ENCERRAR? S/N" style="html=1;strokeWidth=2;shape=manualInput;whiteSpace=wrap;rounded=1;size=26;arcSize=11;" vertex="1" parent="WIyWlLk6GJQsqaUBKTNV-1">
          <mxGeometry x="187.5" y="1020" width="122.5" height="70" as="geometry" />
        </mxCell>
        <mxCell id="shTJUZSFNvjALPhXJrNq-62" value="" style="edgeStyle=orthogonalEdgeStyle;rounded=0;orthogonalLoop=1;jettySize=auto;html=1;" edge="1" parent="WIyWlLk6GJQsqaUBKTNV-1" source="shTJUZSFNvjALPhXJrNq-60" target="shTJUZSFNvjALPhXJrNq-61">
          <mxGeometry relative="1" as="geometry" />
        </mxCell>
        <mxCell id="shTJUZSFNvjALPhXJrNq-60" value="SISTEMA ENCERRADO" style="strokeWidth=2;html=1;shape=mxgraph.flowchart.display;whiteSpace=wrap;" vertex="1" parent="WIyWlLk6GJQsqaUBKTNV-1">
          <mxGeometry x="400" y="990" width="102.5" height="60" as="geometry" />
        </mxCell>
        <mxCell id="shTJUZSFNvjALPhXJrNq-61" value="FIM" style="strokeWidth=2;html=1;shape=mxgraph.flowchart.terminator;whiteSpace=wrap;" vertex="1" parent="WIyWlLk6GJQsqaUBKTNV-1">
          <mxGeometry x="401.25" y="1090" width="100" height="60" as="geometry" />
        </mxCell>
      </root>
    </mxGraphModel>
  </diagram>
</mxfile>
